<svg width="14" height="15" viewBox="0 0 14 15" fill="none" xmlns="http://www.w3.org/2000/svg">
<g clip-path="url(#clip0_139_969)">
<rect width="14" height="14" transform="translate(0 0.5)" fill="white" fill-opacity="0.01"/>
<g clip-path="url(#clip1_139_969)">
<path d="M6.99981 4.65901C6.62682 4.65901 6.25748 4.73247 5.91289 4.87521C5.56829 5.01794 5.25519 5.22716 4.99145 5.4909C4.7277 5.75464 4.51849 6.06775 4.37576 6.41234C4.23302 6.75694 4.15956 7.12627 4.15956 7.49926C4.15956 7.87224 4.23302 8.24158 4.37576 8.58617C4.51849 8.93077 4.7277 9.24388 4.99145 9.50762C5.25519 9.77136 5.56829 9.98057 5.91289 10.1233C6.25748 10.266 6.62682 10.3395 6.99981 10.3395C7.75309 10.3395 8.47552 10.0403 9.00817 9.50762C9.54082 8.97497 9.84006 8.25254 9.84006 7.49926C9.84006 6.74598 9.54082 6.02355 9.00817 5.4909C8.47552 4.95825 7.75309 4.65901 6.99981 4.65901ZM5.03456 7.49926C5.03456 6.97804 5.24161 6.47817 5.61016 6.10962C5.97872 5.74106 6.47859 5.53401 6.99981 5.53401C7.52102 5.53401 8.02089 5.74106 8.38945 6.10962C8.758 6.47817 8.96506 6.97804 8.96506 7.49926C8.96506 8.02047 8.758 8.52034 8.38945 8.8889C8.02089 9.25745 7.52102 9.46451 6.99981 9.46451C6.47859 9.46451 5.97872 9.25745 5.61016 8.8889C5.24161 8.52034 5.03456 8.02047 5.03456 7.49926Z" fill="#063E57"/>
<path d="M8.57131 1.67438C8.11018 0.108132 5.88943 0.108132 5.42831 1.67438L5.34606 1.95351C5.31385 2.06284 5.25759 2.16358 5.1814 2.24835C5.1052 2.33311 5.011 2.39975 4.90571 2.44338C4.80041 2.48701 4.68668 2.50652 4.57287 2.50049C4.45905 2.49445 4.34802 2.46302 4.24793 2.40851L3.99243 2.26851C2.55743 1.48801 0.988557 3.05776 1.76993 4.49188L1.90906 4.74738C1.96357 4.84748 1.995 4.9585 2.00103 5.07232C2.00707 5.18613 1.98756 5.29986 1.94393 5.40516C1.9003 5.51045 1.83366 5.60465 1.7489 5.68085C1.66413 5.75704 1.56339 5.8133 1.45406 5.84551L1.17493 5.92776C-0.391318 6.38888 -0.391318 8.60963 1.17493 9.07076L1.45406 9.15301C1.56339 9.18521 1.66413 9.24147 1.7489 9.31767C1.83366 9.39386 1.9003 9.48806 1.94393 9.59336C1.98756 9.69865 2.00707 9.81238 2.00103 9.9262C1.995 10.04 1.96357 10.151 1.90906 10.2511L1.76906 10.5066C0.988557 11.9416 2.55743 13.5114 3.99243 12.7291L4.24793 12.59C4.34802 12.5355 4.45905 12.5041 4.57287 12.498C4.68668 12.492 4.80041 12.5115 4.90571 12.5551C5.011 12.5988 5.1052 12.6654 5.1814 12.7502C5.25759 12.8349 5.31385 12.9357 5.34606 13.045L5.42831 13.3241C5.88943 14.8904 8.11018 14.8904 8.57131 13.3241L8.65356 13.045C8.68576 12.9357 8.74202 12.8349 8.81822 12.7502C8.89441 12.6654 8.98861 12.5988 9.09391 12.5551C9.1992 12.5115 9.31293 12.492 9.42675 12.498C9.54056 12.5041 9.65159 12.5355 9.75168 12.59L10.0072 12.73C11.4422 13.5114 13.0119 11.9408 12.2297 10.5066L12.0906 10.2511C12.036 10.151 12.0046 10.04 11.9986 9.9262C11.9925 9.81238 12.0121 9.69865 12.0557 9.59336C12.0993 9.48806 12.166 9.39386 12.2507 9.31767C12.3355 9.24147 12.4362 9.18521 12.5456 9.15301L12.8247 9.07076C14.3909 8.60963 14.3909 6.38888 12.8247 5.92776L12.5456 5.84551C12.4362 5.8133 12.3355 5.75704 12.2507 5.68085C12.166 5.60465 12.0993 5.51045 12.0557 5.40516C12.0121 5.29986 11.9925 5.18613 11.9986 5.07232C12.0046 4.9585 12.036 4.84748 12.0906 4.74738L12.2306 4.49188C13.0119 3.05688 11.4413 1.48801 10.0072 2.26938L9.75168 2.40851C9.65159 2.46302 9.54056 2.49445 9.42675 2.50049C9.31293 2.50652 9.1992 2.48701 9.09391 2.44338C8.98861 2.39975 8.89441 2.33311 8.81822 2.24835C8.74202 2.16358 8.68576 2.06284 8.65356 1.95351L8.57131 1.67438ZM6.26743 1.92201C6.48268 1.19138 7.51693 1.19138 7.73218 1.92201L7.81443 2.20113C7.88357 2.43571 8.00434 2.65183 8.16787 2.83367C8.3314 3.0155 8.53355 3.15844 8.7595 3.25199C8.98545 3.34554 9.22947 3.38734 9.47368 3.37432C9.71789 3.36131 9.95608 3.2938 10.1708 3.17676L10.4254 3.03676C11.0939 2.67363 11.8254 3.40426 11.4614 4.07363L11.3223 4.32913C11.2054 4.54388 11.1381 4.78206 11.1252 5.02621C11.1123 5.27036 11.1543 5.51429 11.2479 5.74014C11.3415 5.96599 11.4845 6.16803 11.6663 6.33146C11.8482 6.49489 12.0643 6.61556 12.2988 6.68463L12.5771 6.76688C13.3077 6.98213 13.3077 8.01638 12.5771 8.23163L12.2979 8.31388C12.0634 8.38303 11.8472 8.50379 11.6654 8.66732C11.4836 8.83085 11.3406 9.033 11.2471 9.25895C11.1535 9.4849 11.1117 9.72892 11.1247 9.97313C11.1378 10.2173 11.2053 10.4555 11.3223 10.6703L11.4623 10.9249C11.8254 11.5934 11.0948 12.3249 10.4254 11.9609L10.1708 11.8218C9.95602 11.7047 9.71777 11.6373 9.47351 11.6243C9.22926 11.6113 8.9852 11.6532 8.75924 11.7468C8.53328 11.8405 8.33114 11.9835 8.16765 12.1655C8.00416 12.3474 7.88347 12.5636 7.81443 12.7983L7.73218 13.0765C7.51693 13.8071 6.48268 13.8071 6.26743 13.0765L6.18518 12.7974C6.11601 12.5629 5.99526 12.3469 5.8318 12.1652C5.66833 11.9834 5.46627 11.8406 5.24044 11.747C5.0146 11.6535 4.77069 11.6116 4.52659 11.6246C4.28249 11.6375 4.04437 11.7049 3.82968 11.8218L3.57418 11.9618C2.90568 12.3249 2.17418 11.5943 2.53818 10.9249L2.67731 10.6703C2.79451 10.4555 2.86215 10.2172 2.87525 9.97291C2.88836 9.7286 2.8466 9.48446 2.75303 9.25839C2.65947 9.03233 2.51648 8.83008 2.33455 8.66649C2.15262 8.5029 1.93638 8.38212 1.70168 8.31301L1.42256 8.23076C0.691932 8.01551 0.691932 6.98126 1.42256 6.76601L1.70168 6.68376C1.93601 6.61455 2.1519 6.49383 2.33356 6.33042C2.51521 6.16701 2.65803 5.96506 2.75155 5.73933C2.84508 5.5136 2.88695 5.26982 2.87411 5.02582C2.86126 4.78183 2.79402 4.54379 2.67731 4.32913L2.53731 4.07363C2.17418 3.40513 2.90481 2.67363 3.57418 3.03763L3.82968 3.17676C4.04437 3.29364 4.28249 3.36101 4.52659 3.37394C4.77069 3.38687 5.0146 3.34504 5.24044 3.2515C5.46627 3.15796 5.66833 3.01508 5.8318 2.83334C5.99526 2.65159 6.11601 2.43558 6.18518 2.20113L6.26743 1.92201Z" fill="#063E57"/>
</g>
</g>
<defs>
<clipPath id="clip0_139_969">
<rect width="14" height="14" fill="white" transform="translate(0 0.5)"/>
</clipPath>
<clipPath id="clip1_139_969">
<rect width="14" height="14" fill="white" transform="translate(0 0.5)"/>
</clipPath>
</defs>
</svg>
