<svg width="17" height="18" viewBox="0 0 17 18" fill="none" xmlns="http://www.w3.org/2000/svg">
<path d="M7.62867 13.4625C6.57376 13.4625 5.54253 13.1497 4.6654 12.5636C3.78827 11.9775 3.10463 11.1445 2.70093 10.1699C2.29723 9.19526 2.19161 8.12282 2.39741 7.08817C2.60321 6.05353 3.11121 5.10314 3.85714 4.3572C4.60308 3.61127 5.55346 3.10328 6.58811 2.89747C7.62276 2.69167 8.6952 2.79729 9.66981 3.20099C10.6444 3.60469 11.4774 4.28833 12.0635 5.16546C12.6496 6.04259 12.9624 7.07382 12.9624 8.12874C12.9624 8.82917 12.8245 9.52275 12.5564 10.1699C12.2884 10.817 11.8955 11.405 11.4002 11.9003C10.9049 12.3956 10.3169 12.7884 9.66981 13.0565C9.02269 13.3245 8.32911 13.4625 7.62867 13.4625ZM7.62867 3.86457C6.7881 3.86457 5.96641 4.11383 5.2675 4.58082C4.56859 5.04782 4.02386 5.71158 3.70219 6.48816C3.38051 7.26475 3.29635 8.11928 3.46034 8.9437C3.62432 9.76812 4.0291 10.5254 4.62347 11.1198C5.21784 11.7141 5.97512 12.1189 6.79954 12.2829C7.62396 12.4469 8.47849 12.3627 9.25508 12.0411C10.0317 11.7194 10.6954 11.1747 11.1624 10.4757C11.6294 9.77683 11.8787 8.95514 11.8787 8.11457C11.8787 6.9874 11.4309 5.90639 10.6339 5.10936C9.83685 4.31234 8.75584 3.86457 7.62867 3.86457Z" fill="#fff"/>
<path d="M14.1666 15.1979C14.0968 15.1983 14.0276 15.1846 13.9631 15.1579C13.8987 15.1311 13.8402 15.0918 13.7911 15.0421L10.8657 12.1167C10.7719 12.016 10.7208 11.8828 10.7232 11.7451C10.7257 11.6075 10.7814 11.4762 10.8787 11.3789C10.9761 11.2815 11.1074 11.2258 11.245 11.2233C11.3827 11.2209 11.5159 11.272 11.6166 11.3658L14.542 14.2913C14.6415 14.3909 14.6973 14.5259 14.6973 14.6667C14.6973 14.8075 14.6415 14.9425 14.542 15.0421C14.4929 15.0918 14.4345 15.1311 14.37 15.1579C14.3055 15.1846 14.2364 15.1983 14.1666 15.1979Z" fill="#fff"/>
</svg>
